<svg xmlns="http://www.w3.org/2000/svg" viewBox="0 0 128 128" width="48" height="48">
    <rect width="128" height="128" rx="28" fill="#0866FF"/>

    <path d="M 92 64 L 72 64 L 72 128 L 48 128 L 48 64 L 32 64 L 32 40 L 48 40 L 48 24 C 48 6 60 0 76 0 L 96 0 L 96 24 L 84 24 C 76 24 72 28 72 36 L 72 40 L 96 40 Z" fill="#FFFFFF"/>

    <path d="M 88 44 L 112 16 L 116 20 L 92 48 Z" fill="#FFD700"/>

    <path d="M 100 0 C 100 4 104 8 108 8 C 104 8 100 12 100 16 C 100 12 96 8 92 8 C 96 8 100 4 100 0 Z" fill="#FFD700"/>
    <path d="M 120 20 C 120 24 124 28 128 28 C 124 28 120 32 120 36 C 120 32 116 28 112 28 C 116 28 120 24 120 20 Z" fill="#FFD700"/>

    <path d="M 80 100 L 88 92 L 96 100 M 88 116 L 88 92" fill="none" stroke="#FFFFFF" stroke-width="6" stroke-linecap="round"/>
    <path d="M 104 104 L 112 104 M 108 100 L 108 108" fill="none" stroke="#FFFFFF" stroke-width="4" stroke-linecap="round"/>
</svg>
